<svg id="svg" version="1.1" xmlns="http://www.w3.org/2000/svg" xmlns:xlink="http://www.w3.org/1999/xlink" width="400" height="454.23728813559325" viewBox="0, 0, 400,454.23728813559325"><g id="svgg"><path id="path0" d="M193.563 37.100 C 181.988 48.821,169.559 62.444,160.597 73.233 C 160.155 73.765,158.445 75.811,156.797 77.779 C 155.148 79.747,153.440 81.842,153.000 82.433 C 152.560 83.025,150.838 85.195,149.172 87.255 C 110.484 135.116,80.794 192.014,73.975 231.364 C 69.763 255.669,69.763 271.344,73.975 295.434 C 79.894 329.284,101.218 364.715,130.374 389.145 C 140.658 397.763,140.586 397.737,140.726 392.909 C 140.975 384.384,142.043 351.110,142.424 340.000 C 142.662 333.070,142.889 323.495,142.928 318.722 L 143.000 310.044 141.205 308.210 C 139.368 306.333,134.215 303.447,129.200 301.486 C 116.547 296.538,114.527 295.619,111.336 293.357 C 106.740 290.100,107.199 295.613,107.204 243.753 L 107.208 198.600 108.141 196.597 C 111.818 188.699,122.982 188.699,126.659 196.597 L 127.592 198.600 127.596 228.940 C 127.600 256.098,127.668 259.423,128.249 260.647 C 130.178 264.713,135.284 264.918,138.175 261.046 C 138.987 259.959,139.003 259.471,139.200 228.871 L 139.400 197.800 140.527 195.883 C 144.117 189.775,152.315 188.867,157.006 194.059 C 159.508 196.829,159.383 195.156,159.600 228.666 L 159.800 259.532 161.010 261.253 C 163.223 264.401,166.712 264.791,169.532 262.207 L 171.000 260.862 171.200 229.731 L 171.400 198.600 172.600 196.200 C 175.635 190.130,183.287 188.726,188.291 193.320 C 191.869 196.605,191.581 192.193,191.591 243.926 L 191.600 289.652 189.500 291.741 C 187.058 294.170,183.677 295.930,174.000 299.810 C 161.924 304.650,157.380 307.315,156.140 310.283 C 155.396 312.063,155.749 327.588,157.814 383.800 C 158.138 392.600,158.404 401.510,158.407 403.600 C 158.413 408.706,158.507 408.838,164.225 411.746 C 192.636 426.197,207.953 426.952,234.000 415.186 C 238.015 413.372,244.788 410.094,245.113 409.808 C 245.393 409.560,245.518 407.654,245.755 400.000 C 246.410 378.864,247.273 352.721,247.810 337.798 C 248.883 307.980,248.971 308.379,240.400 304.505 C 235.045 302.085,233.186 301.035,229.781 298.508 C 187.562 267.173,205.170 190.656,254.600 190.656 C 283.445 190.656,303.905 216.086,303.090 250.927 C 302.518 275.419,290.702 294.219,269.498 304.373 C 260.866 308.506,260.607 309.165,261.196 325.512 C 261.577 336.109,262.170 353.548,263.218 384.995 C 263.445 391.813,263.766 397.526,263.931 397.691 C 264.522 398.282,277.446 387.733,284.344 381.028 C 328.868 337.751,344.152 275.395,325.775 212.000 C 310.879 160.617,272.920 101.240,219.400 45.605 C 212.427 38.357,202.611 28.800,202.139 28.800 C 201.930 28.800,198.070 32.535,193.563 37.100 " stroke="none" fill="#f2f7f5" fill-rule="evenodd"></path><path id="path1" d="M0.000 227.000 L 0.000 454.000 200.000 454.000 L 400.000 454.000 400.000 227.000 L 400.000 0.000 200.000 0.000 L 0.000 0.000 0.000 227.000 M208.360 34.500 C 269.289 93.969,313.978 163.472,328.146 220.800 C 343.805 284.158,324.100 347.930,276.400 388.271 C 270.167 393.542,264.251 398.011,263.931 397.691 C 263.766 397.526,263.445 391.813,263.218 384.995 C 262.170 353.548,261.577 336.109,261.196 325.512 C 260.607 309.165,260.866 308.506,269.498 304.373 C 290.702 294.219,302.518 275.419,303.090 250.927 C 303.905 216.086,283.445 190.656,254.600 190.656 C 205.170 190.656,187.562 267.173,229.781 298.508 C 233.186 301.035,235.045 302.085,240.400 304.505 C 248.971 308.379,248.883 307.980,247.810 337.798 C 247.273 352.721,246.410 378.864,245.755 400.000 C 245.518 407.654,245.393 409.560,245.113 409.808 C 244.788 410.094,238.015 413.372,234.000 415.186 C 207.953 426.952,192.636 426.197,164.225 411.746 C 158.507 408.838,158.413 408.706,158.407 403.600 C 158.404 401.510,158.138 392.600,157.814 383.800 C 155.749 327.588,155.396 312.063,156.140 310.283 C 157.380 307.315,161.924 304.650,174.000 299.810 C 183.677 295.930,187.058 294.170,189.500 291.741 L 191.600 289.652 191.591 243.926 C 191.581 192.193,191.869 196.605,188.291 193.320 C 183.287 188.726,175.635 190.130,172.600 196.200 L 171.400 198.600 171.200 229.731 L 171.000 260.862 169.532 262.207 C 166.712 264.791,163.223 264.401,161.010 261.253 L 159.800 259.532 159.600 228.666 C 159.383 195.156,159.508 196.829,157.006 194.059 C 152.315 188.867,144.117 189.775,140.527 195.883 L 139.400 197.800 139.200 228.871 C 139.003 259.471,138.987 259.959,138.175 261.046 C 135.284 264.918,130.178 264.713,128.249 260.647 C 127.668 259.423,127.600 256.098,127.596 228.940 L 127.592 198.600 126.659 196.597 C 122.982 188.699,111.818 188.699,108.141 196.597 L 107.208 198.600 107.204 243.753 C 107.199 295.613,106.740 290.100,111.336 293.357 C 114.527 295.619,116.547 296.538,129.200 301.486 C 134.215 303.447,139.368 306.333,141.205 308.210 L 143.000 310.044 142.928 318.722 C 142.889 323.495,142.662 333.070,142.424 340.000 C 142.043 351.110,140.975 384.384,140.726 392.909 C 140.586 397.737,140.658 397.763,130.374 389.145 C 101.218 364.715,79.894 329.284,73.975 295.434 C 69.763 271.344,69.763 255.669,73.975 231.364 C 78.119 207.451,91.920 173.923,110.267 143.200 C 121.363 124.620,136.106 103.419,149.172 87.255 C 150.838 85.195,152.560 83.025,153.000 82.433 C 153.440 81.842,155.148 79.747,156.797 77.779 C 158.445 75.811,160.155 73.765,160.597 73.233 C 171.990 59.519,200.710 28.800,202.139 28.800 C 202.349 28.800,205.148 31.365,208.360 34.500 " stroke="none" fill="#00473e" fill-rule="evenodd"></path></g></svg>